<svg xmlns="http://www.w3.org/2000/svg" viewBox="0 0 500 500"><g id="freepik--background-simple--inject-2"><path d="M488.18,244.31c-5.41,44.87-26.1,97.07-67.31,121.1-62.27,36.32-57.15,92-178.61,116.42A251,251,0,0,1,188.42,487a208.3,208.3,0,0,1-26.42-2.1C84.85,473.8,33,420.58,14.06,356.27c-24.93-84.59,25.22-140.07,58.46-173.5S130.23,45.29,249.44,20.36a243.84,243.84,0,0,1,55.34-5.31c42.4,1,88.62,14.72,120.58,43.55,2.4,2.16,4.73,4.41,7,6.72C476.77,110.62,495.55,183.14,488.18,244.31Z" style="fill:#FFC100"></path><path d="M488.18,244.31c-5.41,44.87-26.1,97.07-67.31,121.1-62.27,36.32-57.15,92-178.61,116.42A251,251,0,0,1,188.42,487a208.3,208.3,0,0,1-26.42-2.1C84.85,473.8,33,420.58,14.06,356.27c-24.93-84.59,25.22-140.07,58.46-173.5S130.23,45.29,249.44,20.36a243.84,243.84,0,0,1,55.34-5.31c42.4,1,88.62,14.72,120.58,43.55,2.4,2.16,4.73,4.41,7,6.72C476.77,110.62,495.55,183.14,488.18,244.31Z" style="fill:#fff;opacity:0.7000000000000001"></path></g><g id="freepik--Circles--inject-2"><circle cx="159.94" cy="73.03" r="38.1" style="fill:#FFC100"></circle><circle cx="233.31" cy="39.16" r="18.34" style="fill:#FFC100"></circle><circle cx="150.57" cy="244.48" r="18.34" transform="translate(-124.36 161.69) rotate(-41.61)" style="fill:#FFC100"></circle><circle cx="277.76" cy="384.16" r="18.34" transform="matrix(0.21, -0.98, 0.98, 0.21, -156.25, 574.86)" style="fill:#FFC100"></circle><circle cx="168.05" cy="140.4" r="8.82" transform="translate(-41.08 75.47) rotate(-22.63)" style="fill:#FFC100"></circle><circle cx="344.79" cy="374.29" r="16.23" style="fill:#FFC100"></circle><circle cx="461.55" cy="141.11" r="20.11" transform="translate(35.41 367.7) rotate(-45)" style="fill:#FFC100"></circle><path d="M36.47,233.18a6.35,6.35,0,1,1-6.35-6.35A6.35,6.35,0,0,1,36.47,233.18Z" style="fill:#FFC100"></path><circle cx="90.5" cy="134.7" r="13.82" style="fill:#FFC100"></circle></g><g id="freepik--musical-notes--inject-2"><line x1="35.05" y1="79.68" x2="468.85" y2="79.68" style="fill:none;stroke:#263238;stroke-linecap:round;stroke-linejoin:round"></line><line x1="35.05" y1="87.55" x2="468.85" y2="87.55" style="fill:none;stroke:#263238;stroke-linecap:round;stroke-linejoin:round"></line><line x1="35.05" y1="95.41" x2="468.85" y2="95.41" style="fill:none;stroke:#263238;stroke-linecap:round;stroke-linejoin:round"></line><line x1="35.05" y1="103.27" x2="468.85" y2="103.27" style="fill:none;stroke:#263238;stroke-linecap:round;stroke-linejoin:round"></line><line x1="35.05" y1="111.13" x2="468.85" y2="111.13" style="fill:none;stroke:#263238;stroke-linecap:round;stroke-linejoin:round"></line><path d="M68.68,73.78H67.51v23c-1.43-.85-4-.92-6.6,0-3.59,1.2-6,3.73-5.33,5.65s4.07,2.49,7.66,1.28c2.95-1,5.08-2.87,5.4-4.57h0Z" style="fill:#263238;stroke:#263238;stroke-linecap:round;stroke-linejoin:round"></path><path d="M107.22,73.78H106v23c-1.43-.85-4-.92-6.59,0-3.59,1.2-6,3.73-5.34,5.65s4.08,2.49,7.67,1.28c2.94-1,5.08-2.87,5.39-4.57h0Z" style="fill:#263238;stroke:#263238;stroke-linecap:round;stroke-linejoin:round"></path><path d="M184.61,126.53h1.18v-23c1.43.86,4,.93,6.59,0,3.59-1.21,6-3.74,5.34-5.65s-4.08-2.49-7.67-1.28c-2.94,1-5.07,2.86-5.39,4.56h0Z" style="fill:#263238;stroke:#263238;stroke-linecap:round;stroke-linejoin:round"></path><path d="M169.25,87.52c-.19-4.71-2.16-7.85-5.3-9.81a12.08,12.08,0,0,1-4.18-3.93h-1.18v23c-1.43-.85-4-.92-6.59,0-3.59,1.2-6,3.73-5.34,5.65s4.08,2.49,7.67,1.28c2.94-1,5.07-2.87,5.39-4.57h.05V79.87a17.57,17.57,0,0,0,5,3.33c3.92,1.77,4.51,10.2,4.51,10.2A36.91,36.91,0,0,0,169.25,87.52Z" style="fill:#263238;stroke:#263238;stroke-linecap:round;stroke-linejoin:round"></path><path d="M316.86,73.78h-1.18v23c-1.42-.85-4-.92-6.59,0-3.59,1.2-6,3.73-5.33,5.65s4.07,2.49,7.66,1.28c2.95-1,5.08-2.87,5.4-4.57h0Z" style="fill:#263238;stroke:#263238;stroke-linecap:round;stroke-linejoin:round"></path><path d="M355.4,73.78h-1.18v23c-1.43-.85-4-.92-6.59,0-3.59,1.2-6,3.73-5.34,5.65s4.08,2.49,7.67,1.28c2.94-1,5.07-2.87,5.39-4.57h0Z" style="fill:#263238;stroke:#263238;stroke-linecap:round;stroke-linejoin:round"></path><path d="M432.79,126.53H434v-23c1.43.86,4,.93,6.59,0,3.59-1.21,6-3.74,5.34-5.65s-4.08-2.49-7.67-1.28c-2.94,1-5.07,2.86-5.39,4.56h0Z" style="fill:#263238;stroke:#263238;stroke-linecap:round;stroke-linejoin:round"></path><path d="M417.43,87.52c-.2-4.71-2.16-7.85-5.3-9.81A12.08,12.08,0,0,1,408,73.78h-1.18v23c-1.43-.85-4-.92-6.59,0-3.59,1.2-6,3.73-5.34,5.65s4.08,2.49,7.67,1.28c2.94-1,5.07-2.87,5.39-4.57H408V79.87a17.57,17.57,0,0,0,5,3.33c3.92,1.77,4.51,10.2,4.51,10.2A36.91,36.91,0,0,0,417.43,87.52Z" style="fill:#263238;stroke:#263238;stroke-linecap:round;stroke-linejoin:round"></path><path d="M239.24,72.14v1.64h0v23c-1.42-.85-4-.92-6.59,0-3.59,1.2-6,3.73-5.33,5.65s4.07,2.49,7.66,1.28c2.94-1,5.08-2.87,5.4-4.57h0V76.74h37.94v20c-1.43-.85-4-.92-6.59,0-3.59,1.2-6,3.73-5.34,5.65s4.07,2.49,7.66,1.28c2.95-1,5.08-2.87,5.4-4.57h0V72.14Z" style="fill:#263238;stroke:#263238;stroke-linecap:round;stroke-linejoin:round"></path><line x1="35.05" y1="166.82" x2="468.85" y2="166.82" style="fill:none;stroke:#263238;stroke-linecap:round;stroke-linejoin:round"></line><line x1="35.05" y1="174.68" x2="468.85" y2="174.68" style="fill:none;stroke:#263238;stroke-linecap:round;stroke-linejoin:round"></line><line x1="35.05" y1="182.54" x2="468.85" y2="182.54" style="fill:none;stroke:#263238;stroke-linecap:round;stroke-linejoin:round"></line><line x1="35.05" y1="190.4" x2="468.85" y2="190.4" style="fill:none;stroke:#263238;stroke-linecap:round;stroke-linejoin:round"></line><line x1="35.05" y1="198.26" x2="468.85" y2="198.26" style="fill:none;stroke:#263238;stroke-linecap:round;stroke-linejoin:round"></line><path d="M68.68,160.91H67.51v23c-1.43-.85-4-.92-6.6,0-3.59,1.21-6,3.73-5.33,5.65s4.07,2.49,7.66,1.28c2.95-1,5.08-2.87,5.4-4.57h0Z" style="fill:#263238;stroke:#263238;stroke-linecap:round;stroke-linejoin:round"></path><path d="M107.22,160.91H106v23c-1.43-.85-4-.92-6.59,0-3.59,1.21-6,3.73-5.34,5.65s4.08,2.49,7.67,1.28c2.94-1,5.08-2.87,5.39-4.57h0Z" style="fill:#263238;stroke:#263238;stroke-linecap:round;stroke-linejoin:round"></path><path d="M184.61,213.66h1.18v-23c1.43.86,4,.93,6.59.05,3.59-1.21,6-3.74,5.34-5.65s-4.08-2.49-7.67-1.28c-2.94,1-5.07,2.86-5.39,4.56h0Z" style="fill:#263238;stroke:#263238;stroke-linecap:round;stroke-linejoin:round"></path><path d="M169.25,174.65c-.19-4.71-2.16-7.85-5.3-9.81a12.08,12.08,0,0,1-4.18-3.93h-1.18v23c-1.43-.85-4-.92-6.59,0-3.59,1.21-6,3.73-5.34,5.65s4.08,2.49,7.67,1.28c2.94-1,5.07-2.87,5.39-4.57h.05V167a17.57,17.57,0,0,0,5,3.33c3.92,1.77,4.51,10.2,4.51,10.2A36.91,36.91,0,0,0,169.25,174.65Z" style="fill:#263238;stroke:#263238;stroke-linecap:round;stroke-linejoin:round"></path><path d="M316.86,160.91h-1.18v23c-1.42-.85-4-.92-6.59,0-3.59,1.21-6,3.73-5.33,5.65s4.07,2.49,7.66,1.28c2.95-1,5.08-2.87,5.4-4.57h0Z" style="fill:#263238;stroke:#263238;stroke-linecap:round;stroke-linejoin:round"></path><path d="M355.4,160.91h-1.18v23c-1.43-.85-4-.92-6.59,0-3.59,1.21-6,3.73-5.34,5.65s4.08,2.49,7.67,1.28c2.94-1,5.07-2.87,5.39-4.57h0Z" style="fill:#263238;stroke:#263238;stroke-linecap:round;stroke-linejoin:round"></path><path d="M432.79,213.66H434v-23c1.43.86,4,.93,6.59.05,3.59-1.21,6-3.74,5.34-5.65s-4.08-2.49-7.67-1.28c-2.94,1-5.07,2.86-5.39,4.56h0Z" style="fill:#263238;stroke:#263238;stroke-linecap:round;stroke-linejoin:round"></path><path d="M417.43,174.65c-.2-4.71-2.16-7.85-5.3-9.81a12.08,12.08,0,0,1-4.18-3.93h-1.18v23c-1.43-.85-4-.92-6.59,0-3.59,1.21-6,3.73-5.34,5.65s4.08,2.49,7.67,1.28c2.94-1,5.07-2.87,5.39-4.57H408V167a17.57,17.57,0,0,0,5,3.33c3.92,1.77,4.51,10.2,4.51,10.2A36.91,36.91,0,0,0,417.43,174.65Z" style="fill:#263238;stroke:#263238;stroke-linecap:round;stroke-linejoin:round"></path><path d="M239.24,159.28v1.63h0v23c-1.42-.85-4-.92-6.59,0-3.59,1.21-6,3.73-5.33,5.65s4.07,2.49,7.66,1.28c2.94-1,5.08-2.87,5.4-4.57h0V163.88h37.94v20c-1.43-.85-4-.92-6.59,0-3.59,1.21-6,3.73-5.34,5.65s4.07,2.49,7.66,1.28c2.95-1,5.08-2.87,5.4-4.57h0V159.28Z" style="fill:#263238;stroke:#263238;stroke-linecap:round;stroke-linejoin:round"></path></g><g id="freepik--Piano--inject-2"><path d="M208.53,243.85,325.14,86.45h67.35l5,3.85L379,119.16s16.55,9.62,57.73,16.93,50.8,25.4,46.18,39.26-14.62,32.33-40.41,46.57-57,24.63-57,24.63H207.37Z" style="fill:#263238;stroke:#263238;stroke-linecap:round;stroke-linejoin:round"></path><line x1="315.13" y1="135.71" x2="337.84" y2="244.62" style="fill:none;stroke:#737373;stroke-linecap:round;stroke-linejoin:round;stroke-width:4px"></line><path d="M377.1,125.7s36.17,10.39,58.11,14.63,42.33,14.24,45,24.63" style="fill:none;stroke:#878787;stroke-linecap:round;stroke-linejoin:round"></path><polyline points="392.49 90.3 332.84 90.3 248.55 207.29" style="fill:none;stroke:#878787;stroke-linecap:round;stroke-linejoin:round"></polyline><path d="M299.61,244.91c-.08-2.58-.13-6.51.13-10.12.44-6,6.55-15.79,7.43-19.5s-2.19-1.86-7-1.86a181.31,181.31,0,0,1-32.77-3.25c-13.55-2.78-15.73-1.85-29.72.93a56.72,56.72,0,0,1-24.9-.46,109.06,109.06,0,0,1-2.62,16.25c-1.88,8-6.32,15.91-7.54,18Z" style="fill:#616161;stroke:#263238;stroke-linecap:round;stroke-linejoin:round"></path><rect x="199.25" y="326.65" width="68.9" height="11.18" style="fill:#263238;stroke:#263238;stroke-linecap:round;stroke-linejoin:round"></rect><rect x="245.6" y="326.65" width="22.55" height="11.18" style="fill:#263238;stroke:#263238;stroke-linecap:round;stroke-linejoin:round"></rect><path d="M150.57,244.48H480.49V308H357.75s-6.31-3.56-7.89,3.15a48.35,48.35,0,0,0-1.05,7.61,8.36,8.36,0,0,1-8.35,7.78H129.65V297.39a6.34,6.34,0,0,1,6.35-6.34h6.4a8.82,8.82,0,0,0,8.81-9Z" style="fill:#263238;stroke:#263238;stroke-linecap:round;stroke-linejoin:round"></path><path d="M283.56,244.87v38.32a8.65,8.65,0,0,1-8.65,8.65h-8.29a6.34,6.34,0,0,0-6.34,6.34v28.38h80.18a8.36,8.36,0,0,0,8.35-7.78,48.35,48.35,0,0,1,1.05-7.61c1.58-6.71,7.89-3.15,7.89-3.15H480.49V244.48h-192Z" style="fill:#263238;stroke:#263238;stroke-linecap:round;stroke-linejoin:round"></path><path d="M283.55,247.69v37.55a6.52,6.52,0,0,1-6.52,6.53H267a6.52,6.52,0,0,0-6.52,6.52v6.91" style="fill:none;stroke:#878787;stroke-linecap:round;stroke-linejoin:round"></path><line x1="357.75" y1="308.02" x2="357.75" y2="246.06" style="fill:none;stroke:#878787;stroke-linecap:round;stroke-linejoin:round"></line><line x1="155.7" y1="245.66" x2="155.7" y2="304.46" style="fill:none;stroke:#878787;stroke-linecap:round;stroke-linejoin:round"></line><rect x="129.65" y="313.14" width="130.09" height="13.43" style="fill:#616161;stroke:#263238;stroke-linecap:round;stroke-linejoin:round"></rect><rect x="148.67" y="308.54" width="3.87" height="1.35" style="fill:#263238;stroke:#263238;stroke-linecap:round;stroke-linejoin:round"></rect><rect x="154.17" y="308.54" width="3.87" height="1.35" style="fill:#263238;stroke:#263238;stroke-linecap:round;stroke-linejoin:round"></rect><rect x="159.67" y="308.54" width="3.87" height="1.35" style="fill:#263238;stroke:#263238;stroke-linecap:round;stroke-linejoin:round"></rect><rect x="168.81" y="308.54" width="3.87" height="1.35" style="fill:#263238;stroke:#263238;stroke-linecap:round;stroke-linejoin:round"></rect><rect x="173.93" y="308.54" width="3.87" height="1.35" style="fill:#263238;stroke:#263238;stroke-linecap:round;stroke-linejoin:round"></rect><rect x="183.04" y="308.54" width="3.87" height="1.35" style="fill:#263238;stroke:#263238;stroke-linecap:round;stroke-linejoin:round"></rect><rect x="188.53" y="308.54" width="3.87" height="1.35" style="fill:#263238;stroke:#263238;stroke-linecap:round;stroke-linejoin:round"></rect><rect x="194.03" y="308.54" width="3.87" height="1.35" style="fill:#263238;stroke:#263238;stroke-linecap:round;stroke-linejoin:round"></rect><rect x="203.18" y="308.54" width="3.87" height="1.35" style="fill:#263238;stroke:#263238;stroke-linecap:round;stroke-linejoin:round"></rect><rect x="208.29" y="308.54" width="3.87" height="1.35" style="fill:#263238;stroke:#263238;stroke-linecap:round;stroke-linejoin:round"></rect><rect x="217.4" y="308.54" width="3.87" height="1.35" style="fill:#263238;stroke:#263238;stroke-linecap:round;stroke-linejoin:round"></rect><rect x="222.9" y="308.54" width="3.87" height="1.35" style="fill:#263238;stroke:#263238;stroke-linecap:round;stroke-linejoin:round"></rect><rect x="228.4" y="308.54" width="3.87" height="1.35" style="fill:#263238;stroke:#263238;stroke-linecap:round;stroke-linejoin:round"></rect><rect x="237.55" y="308.54" width="3.87" height="1.35" style="fill:#263238;stroke:#263238;stroke-linecap:round;stroke-linejoin:round"></rect><rect x="242.66" y="308.54" width="3.87" height="1.35" style="fill:#263238;stroke:#263238;stroke-linecap:round;stroke-linejoin:round"></rect><rect x="251.77" y="308.54" width="3.87" height="1.35" style="fill:#263238;stroke:#263238;stroke-linecap:round;stroke-linejoin:round"></rect><rect x="257.27" y="308.54" width="2.17" height="1.35" style="fill:#263238;stroke:#263238;stroke-linecap:round;stroke-linejoin:round"></rect><line x1="153.26" y1="309.6" x2="153.26" y2="313.09" style="fill:none;stroke:#263238;stroke-linecap:round;stroke-linejoin:round"></line><line x1="147.35" y1="309.6" x2="147.35" y2="313.09" style="fill:none;stroke:#263238;stroke-linecap:round;stroke-linejoin:round"></line><line x1="141.43" y1="309.6" x2="141.43" y2="313.09" style="fill:none;stroke:#263238;stroke-linecap:round;stroke-linejoin:round"></line><line x1="158.86" y1="309.6" x2="158.86" y2="313.09" style="fill:none;stroke:#263238;stroke-linecap:round;stroke-linejoin:round"></line><line x1="164.45" y1="309.6" x2="164.45" y2="313.09" style="fill:none;stroke:#263238;stroke-linecap:round;stroke-linejoin:round"></line><line x1="170.05" y1="309.6" x2="170.05" y2="313.09" style="fill:none;stroke:#263238;stroke-linecap:round;stroke-linejoin:round"></line><line x1="175.65" y1="309.6" x2="175.65" y2="313.09" style="fill:none;stroke:#263238;stroke-linecap:round;stroke-linejoin:round"></line><line x1="181.24" y1="309.6" x2="181.24" y2="313.09" style="fill:none;stroke:#263238;stroke-linecap:round;stroke-linejoin:round"></line><line x1="186.84" y1="309.6" x2="186.84" y2="313.09" style="fill:none;stroke:#263238;stroke-linecap:round;stroke-linejoin:round"></line><line x1="192.44" y1="309.6" x2="192.44" y2="313.09" style="fill:none;stroke:#263238;stroke-linecap:round;stroke-linejoin:round"></line><line x1="198.03" y1="309.6" x2="198.03" y2="313.09" style="fill:none;stroke:#263238;stroke-linecap:round;stroke-linejoin:round"></line><line x1="203.63" y1="309.6" x2="203.63" y2="313.09" style="fill:none;stroke:#263238;stroke-linecap:round;stroke-linejoin:round"></line><line x1="209.23" y1="309.6" x2="209.23" y2="313.09" style="fill:none;stroke:#263238;stroke-linecap:round;stroke-linejoin:round"></line><line x1="214.82" y1="309.6" x2="214.82" y2="313.09" style="fill:none;stroke:#263238;stroke-linecap:round;stroke-linejoin:round"></line><line x1="220.42" y1="309.6" x2="220.42" y2="313.09" style="fill:none;stroke:#263238;stroke-linecap:round;stroke-linejoin:round"></line><line x1="226.02" y1="309.6" x2="226.02" y2="313.09" style="fill:none;stroke:#263238;stroke-linecap:round;stroke-linejoin:round"></line><line x1="231.61" y1="309.6" x2="231.61" y2="313.09" style="fill:none;stroke:#263238;stroke-linecap:round;stroke-linejoin:round"></line><line x1="237.21" y1="309.6" x2="237.21" y2="313.09" style="fill:none;stroke:#263238;stroke-linecap:round;stroke-linejoin:round"></line><line x1="242.81" y1="309.6" x2="242.81" y2="313.09" style="fill:none;stroke:#263238;stroke-linecap:round;stroke-linejoin:round"></line><line x1="248.41" y1="309.6" x2="248.41" y2="313.09" style="fill:none;stroke:#263238;stroke-linecap:round;stroke-linejoin:round"></line><line x1="254" y1="309.6" x2="254" y2="313.09" style="fill:none;stroke:#263238;stroke-linecap:round;stroke-linejoin:round"></line><rect x="139.92" y="309.68" width="119.82" height="3.55" style="fill:#fff;stroke:#263238;stroke-linecap:round;stroke-linejoin:round"></rect><line x1="153.26" y1="309.6" x2="153.26" y2="313.09" style="fill:none;stroke:#263238;stroke-linecap:round;stroke-linejoin:round"></line><line x1="147.35" y1="309.6" x2="147.35" y2="313.09" style="fill:none;stroke:#263238;stroke-linecap:round;stroke-linejoin:round"></line><line x1="141.43" y1="309.6" x2="141.43" y2="313.09" style="fill:none;stroke:#263238;stroke-linecap:round;stroke-linejoin:round"></line><line x1="158.86" y1="309.6" x2="158.86" y2="313.09" style="fill:none;stroke:#263238;stroke-linecap:round;stroke-linejoin:round"></line><line x1="164.45" y1="309.6" x2="164.45" y2="313.09" style="fill:none;stroke:#263238;stroke-linecap:round;stroke-linejoin:round"></line><line x1="170.05" y1="309.6" x2="170.05" y2="313.09" style="fill:none;stroke:#263238;stroke-linecap:round;stroke-linejoin:round"></line><line x1="175.65" y1="309.6" x2="175.65" y2="313.09" style="fill:none;stroke:#263238;stroke-linecap:round;stroke-linejoin:round"></line><line x1="181.24" y1="309.6" x2="181.24" y2="313.09" style="fill:none;stroke:#263238;stroke-linecap:round;stroke-linejoin:round"></line><line x1="186.84" y1="309.6" x2="186.84" y2="313.09" style="fill:none;stroke:#263238;stroke-linecap:round;stroke-linejoin:round"></line><line x1="192.44" y1="309.6" x2="192.44" y2="313.09" style="fill:none;stroke:#263238;stroke-linecap:round;stroke-linejoin:round"></line><line x1="198.03" y1="309.6" x2="198.03" y2="313.09" style="fill:none;stroke:#263238;stroke-linecap:round;stroke-linejoin:round"></line><line x1="203.63" y1="309.6" x2="203.63" y2="313.09" style="fill:none;stroke:#263238;stroke-linecap:round;stroke-linejoin:round"></line><line x1="209.23" y1="309.6" x2="209.23" y2="313.09" style="fill:none;stroke:#263238;stroke-linecap:round;stroke-linejoin:round"></line><line x1="214.82" y1="309.6" x2="214.82" y2="313.09" style="fill:none;stroke:#263238;stroke-linecap:round;stroke-linejoin:round"></line><line x1="220.42" y1="309.6" x2="220.42" y2="313.09" style="fill:none;stroke:#263238;stroke-linecap:round;stroke-linejoin:round"></line><line x1="226.02" y1="309.6" x2="226.02" y2="313.09" style="fill:none;stroke:#263238;stroke-linecap:round;stroke-linejoin:round"></line><line x1="231.61" y1="309.6" x2="231.61" y2="313.09" style="fill:none;stroke:#263238;stroke-linecap:round;stroke-linejoin:round"></line><line x1="237.21" y1="309.6" x2="237.21" y2="313.09" style="fill:none;stroke:#263238;stroke-linecap:round;stroke-linejoin:round"></line><line x1="242.81" y1="309.6" x2="242.81" y2="313.09" style="fill:none;stroke:#263238;stroke-linecap:round;stroke-linejoin:round"></line><line x1="248.41" y1="309.6" x2="248.41" y2="313.09" style="fill:none;stroke:#263238;stroke-linecap:round;stroke-linejoin:round"></line><line x1="254" y1="309.6" x2="254" y2="313.09" style="fill:none;stroke:#263238;stroke-linecap:round;stroke-linejoin:round"></line><polygon points="164.21 376.42 167.56 409.45 177.16 409.45 179.61 376.64 164.21 376.42" style="fill:#263238;stroke:#263238;stroke-linecap:round;stroke-linejoin:round"></polygon><polygon points="156.63 376.42 159.97 409.45 171.1 409.45 172.03 376.64 156.63 376.42" style="fill:#263238;stroke:#263238;stroke-linecap:round;stroke-linejoin:round"></polygon><path d="M135,326.65h64.27a0,0,0,0,1,0,0v4.63a5,5,0,0,1-5,5H141a6,6,0,0,1-6-6v-3.58A0,0,0,0,1,135,326.65Z" style="fill:#263238;stroke:#263238;stroke-linecap:round;stroke-linejoin:round"></path><path d="M199.25,331.53v-4.88H153.06v3.88a5.72,5.72,0,0,0,5.71,5.72h35.76A4.72,4.72,0,0,0,199.25,331.53Z" style="fill:#263238;stroke:#263238;stroke-linecap:round;stroke-linejoin:round"></path><path d="M179.47,349.42H153a4.32,4.32,0,0,1-4.13-3l-3.16-10.13h41.06l-3.16,10.13A4.31,4.31,0,0,1,179.47,349.42Z" style="fill:#263238;stroke:#263238;stroke-linecap:round;stroke-linejoin:round"></path><path d="M183.59,346.38l3.16-10.13H162l3.16,10.13a4.33,4.33,0,0,0,4.13,3h10.2A4.31,4.31,0,0,0,183.59,346.38Z" style="fill:#263238;stroke:#263238;stroke-linecap:round;stroke-linejoin:round"></path><path d="M155.73,349.64,147.2,359v3.7a3.66,3.66,0,0,0,3.66,3.67h34.68a3.67,3.67,0,0,0,3.67-3.67v-4.59l-9.74-8.7Z" style="fill:#263238;stroke:#263238;stroke-linecap:round;stroke-linejoin:round"></path><line x1="147.2" y1="359.01" x2="189.21" y2="359.01" style="fill:#fff;stroke:#263238;stroke-linecap:round;stroke-linejoin:round"></line><rect x="152.61" y="366.38" width="32.36" height="5.85" style="fill:#263238;stroke:#263238;stroke-linecap:round;stroke-linejoin:round"></rect><path d="M184,377.31h-31a2.56,2.56,0,0,1-2.56-2.56h0a2.57,2.57,0,0,1,2.56-2.57h31a2.57,2.57,0,0,1,2.57,2.57h0A2.57,2.57,0,0,1,184,377.31Z" style="fill:#263238;stroke:#263238;stroke-linecap:round;stroke-linejoin:round"></path><polygon points="159.97 409.45 161.31 418.82 176.04 418.82 177.16 409.45 159.97 409.45" style="fill:#263238;stroke:#263238;stroke-linecap:round;stroke-linejoin:round"></polygon><polygon points="170.65 409.45 170.2 418.82 176.04 418.82 177.16 409.45 170.65 409.45" style="fill:#263238;stroke:#263238;stroke-linecap:round;stroke-linejoin:round"></polygon><polygon points="163.99 418.89 166 426.19 170.91 426.19 173.59 418.89 163.99 418.89" style="fill:#263238;stroke:#263238;stroke-linecap:round;stroke-linejoin:round"></polygon><circle cx="171.98" cy="431.59" r="4.56" style="fill:#263238;stroke:#263238;stroke-linecap:round;stroke-linejoin:round"></circle><path d="M167.36,426.3l3.75,5.41a1.21,1.21,0,0,0,1.71.3h0a1.22,1.22,0,0,0,.25-1.75l-3.14-4Z" style="fill:#263238;stroke:#263238;stroke-linecap:round;stroke-linejoin:round"></path><path d="M178.94,409.9h-20.3a1.57,1.57,0,0,1-1.57-1.57h0a1.56,1.56,0,0,1,1.57-1.56h20.3a1.56,1.56,0,0,1,1.57,1.56h0A1.57,1.57,0,0,1,178.94,409.9Z" style="fill:#263238;stroke:#263238;stroke-linecap:round;stroke-linejoin:round"></path><path d="M256.45,326.65h64.27a0,0,0,0,1,0,0v4.63a5,5,0,0,1-5,5H262.46a6,6,0,0,1-6-6v-3.58A0,0,0,0,1,256.45,326.65Z" style="fill:#263238;stroke:#263238;stroke-linecap:round;stroke-linejoin:round"></path><path d="M320.72,331.53v-4.88H274.53v3.88a5.72,5.72,0,0,0,5.71,5.72H316A4.72,4.72,0,0,0,320.72,331.53Z" style="fill:#263238;stroke:#263238;stroke-linecap:round;stroke-linejoin:round"></path><path d="M300.94,349.42H274.45a4.32,4.32,0,0,1-4.13-3l-3.16-10.13h41.06l-3.16,10.13A4.31,4.31,0,0,1,300.94,349.42Z" style="fill:#263238;stroke:#263238;stroke-linecap:round;stroke-linejoin:round"></path><path d="M305.06,346.38l3.16-10.13H283.45l3.16,10.13a4.33,4.33,0,0,0,4.13,3h10.2A4.31,4.31,0,0,0,305.06,346.38Z" style="fill:#263238;stroke:#263238;stroke-linecap:round;stroke-linejoin:round"></path><path d="M277.2,349.64,268.67,359v3.7a3.66,3.66,0,0,0,3.66,3.67H307a3.67,3.67,0,0,0,3.67-3.67v-4.59l-9.74-8.7Z" style="fill:#263238;stroke:#263238;stroke-linecap:round;stroke-linejoin:round"></path><line x1="268.67" y1="359.01" x2="310.68" y2="359.01" style="fill:#263238;stroke:#263238;stroke-linecap:round;stroke-linejoin:round"></line><polygon points="285.68 376.42 289.03 409.45 298.63 409.45 301.08 376.64 285.68 376.42" style="fill:#263238;stroke:#263238;stroke-linecap:round;stroke-linejoin:round"></polygon><polygon points="278.1 376.42 281.44 409.45 292.57 409.45 293.5 376.64 278.1 376.42" style="fill:#263238;stroke:#263238;stroke-linecap:round;stroke-linejoin:round"></polygon><polygon points="281.44 409.45 282.78 418.82 297.51 418.82 298.63 409.45 281.44 409.45" style="fill:#263238;stroke:#263238;stroke-linecap:round;stroke-linejoin:round"></polygon><polygon points="285.46 418.89 287.47 426.19 292.38 426.19 295.06 418.89 285.46 418.89" style="fill:#263238;stroke:#263238;stroke-linecap:round;stroke-linejoin:round"></polygon><circle cx="293.45" cy="431.59" r="4.56" style="fill:#263238;stroke:#263238;stroke-linecap:round;stroke-linejoin:round"></circle><path d="M288.83,426.3l3.75,5.41a1.21,1.21,0,0,0,1.71.3h0a1.22,1.22,0,0,0,.25-1.75l-3.14-4Z" style="fill:#263238;stroke:#263238;stroke-linecap:round;stroke-linejoin:round"></path><path d="M300.41,409.9h-20.3a1.57,1.57,0,0,1-1.57-1.57h0a1.56,1.56,0,0,1,1.57-1.56h20.3a1.56,1.56,0,0,1,1.57,1.56h0A1.57,1.57,0,0,1,300.41,409.9Z" style="fill:#263238;stroke:#263238;stroke-linecap:round;stroke-linejoin:round"></path><rect x="274.08" y="366.38" width="32.36" height="5.85" style="fill:#263238;stroke:#263238;stroke-linecap:round;stroke-linejoin:round"></rect><path d="M305.43,377.31h-31a2.56,2.56,0,0,1-2.56-2.56h0a2.57,2.57,0,0,1,2.56-2.57h31a2.57,2.57,0,0,1,2.57,2.57h0A2.57,2.57,0,0,1,305.43,377.31Z" style="fill:#263238;stroke:#263238;stroke-linecap:round;stroke-linejoin:round"></path><path d="M420,326.42H394.19l3.19,10.72h9.35l3,12.76h16.64l3-12.76H434a6.26,6.26,0,0,0,6-4.47l1.86-6.25Z" style="fill:#263238;stroke:#263238;stroke-linecap:round;stroke-linejoin:round"></path><path d="M397.65,349.64,389.11,359v3.7a3.66,3.66,0,0,0,3.66,3.67h34.69a3.66,3.66,0,0,0,3.66-3.67v-4.59l-9.74-8.7Z" style="fill:#263238;stroke:#263238;stroke-linecap:round;stroke-linejoin:round"></path><line x1="389.11" y1="359.01" x2="431.12" y2="359.01" style="fill:#263238;stroke:#263238;stroke-linecap:round;stroke-linejoin:round"></line><rect x="394.52" y="366.38" width="32.36" height="5.85" style="fill:#263238;stroke:#263238;stroke-linecap:round;stroke-linejoin:round"></rect><polygon points="406.13 376.42 409.48 409.45 419.07 409.45 421.53 376.64 406.13 376.42" style="fill:#263238;stroke:#263238;stroke-linecap:round;stroke-linejoin:round"></polygon><polygon points="398.54 376.42 401.89 409.45 413.02 409.45 413.94 376.64 398.54 376.42" style="fill:#263238;stroke:#263238;stroke-linecap:round;stroke-linejoin:round"></polygon><path d="M425.88,377.31h-31a2.57,2.57,0,0,1-2.57-2.56h0a2.57,2.57,0,0,1,2.57-2.57h31a2.57,2.57,0,0,1,2.56,2.57h0A2.56,2.56,0,0,1,425.88,377.31Z" style="fill:#263238;stroke:#263238;stroke-linecap:round;stroke-linejoin:round"></path><polygon points="401.89 409.45 403.23 418.82 417.95 418.82 419.07 409.45 401.89 409.45" style="fill:#263238;stroke:#263238;stroke-linecap:round;stroke-linejoin:round"></polygon><polygon points="405.9 418.89 407.91 426.19 412.82 426.19 415.5 418.89 405.9 418.89" style="fill:#263238;stroke:#263238;stroke-linecap:round;stroke-linejoin:round"></polygon><circle cx="413.9" cy="431.59" r="4.56" style="fill:#263238;stroke:#263238;stroke-linecap:round;stroke-linejoin:round"></circle><path d="M409.27,426.3l3.75,5.41a1.21,1.21,0,0,0,1.71.3h0a1.21,1.21,0,0,0,.25-1.75l-3.14-4Z" style="fill:#263238;stroke:#263238;stroke-linecap:round;stroke-linejoin:round"></path><path d="M420.86,409.9H400.55a1.56,1.56,0,0,1-1.56-1.57h0a1.56,1.56,0,0,1,1.56-1.56h20.31a1.56,1.56,0,0,1,1.56,1.56h0A1.56,1.56,0,0,1,420.86,409.9Z" style="fill:#263238;stroke:#263238;stroke-linecap:round;stroke-linejoin:round"></path><path d="M404.22,326.42H378.46l2.06,6.91a5.33,5.33,0,0,0,5.11,3.81H391l3,12.76h16.64l3-12.76h4.68a6.26,6.26,0,0,0,6-4.47l1.86-6.25Z" style="fill:#263238;stroke:#263238;stroke-linecap:round;stroke-linejoin:round"></path><rect x="365.93" y="307.73" width="90.73" height="9.57" style="fill:#263238;stroke:#263238;stroke-linecap:round;stroke-linejoin:round"></rect><rect x="417.88" y="307.73" width="38.78" height="9.57" style="fill:#263238;stroke:#263238;stroke-linecap:round;stroke-linejoin:round"></rect><rect x="369.39" y="317.3" width="83.8" height="9.57" style="fill:#263238;stroke:#263238;stroke-linecap:round;stroke-linejoin:round"></rect><rect x="412.44" y="317.3" width="40.75" height="9.57" style="fill:#263238;stroke:#263238;stroke-linecap:round;stroke-linejoin:round"></rect><rect x="206.81" y="338.18" width="14.99" height="69.35" style="fill:#263238;stroke:#263238;stroke-linecap:round;stroke-linejoin:round"></rect><rect x="214.31" y="338.18" width="7.49" height="69.35" style="fill:#263238;stroke:#263238;stroke-linecap:round;stroke-linejoin:round"></rect><rect x="235.74" y="338.18" width="14.99" height="69.35" style="fill:#263238;stroke:#263238;stroke-linecap:round;stroke-linejoin:round"></rect><rect x="243.23" y="338.18" width="7.49" height="69.35" style="fill:#263238;stroke:#263238;stroke-linecap:round;stroke-linejoin:round"></rect><rect x="199.84" y="406.84" width="55.41" height="13.94" style="fill:#263238;stroke:#263238;stroke-linecap:round;stroke-linejoin:round"></rect><rect x="234.65" y="406.84" width="20.61" height="13.94" style="fill:#263238;stroke:#263238;stroke-linecap:round;stroke-linejoin:round"></rect><rect x="186.13" y="414.45" width="21.37" height="1.94" style="fill:#263238;stroke:#263238;stroke-linecap:round;stroke-linejoin:round"></rect><rect x="186.13" y="414.45" width="11.55" height="1.94" style="fill:#263238;stroke:#263238;stroke-linecap:round;stroke-linejoin:round"></rect><rect x="198.99" y="414.45" width="21.37" height="1.94" style="fill:#263238;stroke:#263238;stroke-linecap:round;stroke-linejoin:round"></rect><rect x="198.99" y="414.45" width="11.55" height="1.94" style="fill:#263238;stroke:#263238;stroke-linecap:round;stroke-linejoin:round"></rect><line x1="190.45" y1="245.66" x2="190.45" y2="304.46" style="fill:none;stroke:#878787;stroke-linecap:round;stroke-linejoin:round"></line></g><g id="freepik--Character--inject-2"><path d="M152,300s6.58,2,7.39,2.52,3.25,4.14,3.5,4.22-11.7-6.09-11.7-6.09Z" style="fill:#b8b8b8;stroke:#263238;stroke-linecap:round;stroke-linejoin:round"></path><path d="M139.69,295.65s7.69,1.71,8.76,1.92S159,304.74,161.79,306s4.21,2.22,3.82,2.52c-1.18.9-1,.68-7.57,0-3.56-.37-4.89-1.56-4.89-1.56s-7.48.64-11.33-.22-7.69-5.77-7.69-5.77l1.5-6.83Z" style="fill:#b8b8b8;stroke:#263238;stroke-linecap:round;stroke-linejoin:round"></path><path d="M144.86,301.11s9.46,4.59,13.6,6.29c2.38,1-3.27,2.87-5.2,2.2a29.32,29.32,0,0,0-4.59-1.06,15.06,15.06,0,0,1-6.85-1.78c-3.56-1.88-6.2-6.59-6.2-6.59" style="fill:#b8b8b8;stroke:#263238;stroke-linecap:round;stroke-linejoin:round"></path><polygon points="138.14 293.29 133.98 304.22 124.28 301.45 129.82 289.29 138.14 293.29" style="fill:#FFC100;stroke:#263238;stroke-linecap:round;stroke-linejoin:round"></polygon><path d="M131.06,287.9s-4.31,14.16-5.55,15.09-14.78-.62-14.78-.62L114,280.2S131.67,285.13,131.06,287.9Z" style="fill:#FFC100;stroke:#263238;stroke-linecap:round;stroke-linejoin:round"></path><path d="M131.64,406.94s-9.21,17.47-9.53,18.42,9.53,6.67,11.75,6.67,2.22-1.27,4.44-.32,5.4,3.49,8.89,4.12,13-.31,14.29-1.26-.63-2.23-3.17-4.13-8.26-4.45-10.16-6.67-5.4-7.62-5.4-7.62l3.81-8.25Z" style="fill:#b8b8b8;stroke:#263238;stroke-linecap:round;stroke-linejoin:round"></path><path d="M158.31,430.44c-2.54-1.91-8.26-4.45-10.16-6.67s-5.4-7.62-5.4-7.62L138.94,420s-7.27-3.19-11.47-5.07c-2.49,4.75-5.19,10-5.36,10.47-.31.95,9.53,6.67,11.75,6.67s2.22-1.27,4.44-.32,5.4,3.49,8.89,4.12,13-.31,14.29-1.26S160.85,432.34,158.31,430.44Z" style="fill:#263238;stroke:#263238;stroke-linecap:round;stroke-linejoin:round"></path><path d="M161.44,407.12l.32,15.56.64,10.48s5.08,2.54,7.3,2.22a57.17,57.17,0,0,1,6.52-.5c1.27,0,13.8,1.77,17.61,1.14s10.16-2.54,9.52-5.08-12.06-4.77-17.78-7.62a29.81,29.81,0,0,1-9.2-7.31l.63-15.55Z" style="fill:#b8b8b8;stroke:#263238;stroke-linecap:round;stroke-linejoin:round"></path><path d="M185.57,423.32a29.81,29.81,0,0,1-9.2-7.31s-1.27,0-1.59,2.86l-.32,2.86s-5.08,2.22-9.84,1.27c-1.07-.21-2-.41-2.86-.59v.27l.64,10.48s5.08,2.54,7.3,2.22a57.17,57.17,0,0,1,6.52-.5c1.27,0,13.8,1.77,17.61,1.14s10.16-2.54,9.52-5.08S191.29,426.17,185.57,423.32Z" style="fill:#263238;stroke:#263238;stroke-linecap:round;stroke-linejoin:round"></path><path d="M180.67,341.25c-1.23-3.27-12.19-2.86-20.19-2l.74-3.69L99,349l47.16,5.74-17.72,55.71,20.64-.32,27.76-44.74S182.58,346.33,180.67,341.25Z" style="fill:#263238;stroke:#263238;stroke-linecap:round;stroke-linejoin:round"></path><path d="M92.2,201.45s1.46-6.72,1.16-9.93-3.79-7.59-1.75-15.19S101,160,111.76,160s18.11,12.56,18.11,12.56,3.78,10.32,3.39,12.49-2.56,4.53-1.77,6.1,4.13,4.14,3.54,6.31a5.43,5.43,0,0,1-2.76,3.15,28.24,28.24,0,0,1-1,7.28c-1,3-3.54,7.09-5.91,6.9s-9.06-3-9.06-3l-5.9,6.7s-13.4-11-17.14-12.21l-3.74-1.18Z" style="fill:#b8b8b8;stroke:#263238;stroke-linecap:round;stroke-linejoin:round"></path><polygon points="116.32 211.81 110.58 208.99 111.47 216.78 116.32 211.81" style="fill:#263238;stroke:#263238;stroke-linecap:round;stroke-linejoin:round"></polygon><path d="M127.35,190.35s-1.38,2.56-4.53.78" style="fill:none;stroke:#263238;stroke-linecap:round;stroke-linejoin:round"></path><path d="M129.12,186.41s-3-1.77-7.68,1.18" style="fill:none;stroke:#263238;stroke-linecap:round;stroke-linejoin:round"></path><path d="M131.68,205.71s-5.51.19-7.09-3.15" style="fill:none;stroke:#263238;stroke-linecap:round;stroke-linejoin:round"></path><path d="M132.27,200.59s-3.15.78-3.93-.2.78-2.36.78-2.36" style="fill:none;stroke:#263238;stroke-linecap:round;stroke-linejoin:round"></path><path d="M111.76,160c-10.8,0-18.1,8.76-20.15,16.35s1.46,12,1.75,15.19a.17.17,0,0,1,0,.07,8.1,8.1,0,0,0,5,.13c3.15-1.18,4.33-1,4.33-1l3.94-1.77s.4-3.74,3-4.93,1.77-2.16,1.18-3.74-1.58-3.15,3.74-6.89c4-2.85,10.6-3.41,13.5-3.52C125.24,166.2,119.37,160,111.76,160Z" style="fill:#263238;stroke:#263238;stroke-linecap:round;stroke-linejoin:round"></path><path d="M105.89,190.54s-4.93-5.31-7.49-3.34-1.38,5.9,0,7.48a9.5,9.5,0,0,0,5.12,2.76c1,0,2.56-1.58,2.56-1.58" style="fill:#b8b8b8;stroke:#263238;stroke-linecap:round;stroke-linejoin:round"></path><path d="M113.57,220.67l-4.14,4.53s-4.14-7.48-10.44-10.43a65.86,65.86,0,0,0-13.19-4.34l5.32-7.28A71.12,71.12,0,0,1,104.9,210,25.72,25.72,0,0,1,113.57,220.67Z" style="fill:#FFC100;stroke:#263238;stroke-linecap:round;stroke-linejoin:round"></path><path d="M56.42,316S54.24,341,57.71,345c5.2,5.92,22.85,7.12,31.09,6s67-2.62,67-2.62-1.49,4.12.38,4.12,5.24.38,5.24.38L161,412.49l22-8s7.71-73,7.71-75.62-2.24-5.62-3.74-7.49-72.26-10.49-72.26-10.49l-2.29-1.55S73.85,308.08,56.42,316Z" style="fill:#FFC100;stroke:#263238;stroke-linecap:round;stroke-linejoin:round"></path><path d="M83.88,325.5a25.42,25.42,0,0,0-4.44,4.19" style="fill:none;stroke:#263238;stroke-linecap:round;stroke-linejoin:round"></path><path d="M109.74,312.08s-13.62,5.14-23.16,11.5" style="fill:none;stroke:#263238;stroke-linecap:round;stroke-linejoin:round"></path><path d="M75.67,328.9a27.78,27.78,0,0,0-3.74,4.93" style="fill:none;stroke:#263238;stroke-linecap:round;stroke-linejoin:round"></path><path d="M93.17,314.41a128.57,128.57,0,0,0-15.31,12.25" style="fill:none;stroke:#263238;stroke-linecap:round;stroke-linejoin:round"></path><path d="M175.43,338.33a17.63,17.63,0,0,0,3.74-3.21" style="fill:none;stroke:#263238;stroke-linecap:round;stroke-linejoin:round"></path><path d="M157.93,347.56A151.83,151.83,0,0,0,172,340.47" style="fill:none;stroke:#263238;stroke-linecap:round;stroke-linejoin:round"></path><path d="M162.44,341.77c3.31-3.45,7.59-8.5,8.48-12.42" style="fill:none;stroke:#263238;stroke-linecap:round;stroke-linejoin:round"></path><path d="M158.39,345.7s1-.89,2.44-2.31" style="fill:none;stroke:#263238;stroke-linecap:round;stroke-linejoin:round"></path><path d="M85.8,210.43s-16.74,9.85-22.25,21.27a67.74,67.74,0,0,0-6.11,23.24s-3.74,2.36-2.76,6.5A40.82,40.82,0,0,0,58,269.91s-3.38,21.71-2.2,24.27A11,11,0,0,1,57,298.32s-4.53,3.94-3.55,6.1A9.39,9.39,0,0,0,56,307.77s-3,1.77-2.56,3.15a32.86,32.86,0,0,0,3,5.12s17.72-2.75,28.55-4.53,27.38-2.16,27.38-2.16,4.56-40.62,5.75-46.34-1-22.45-3.55-28.55a41,41,0,0,0-5.12-9.26S101.16,210.24,85.8,210.43Z" style="fill:#263238;stroke:#263238;stroke-linecap:round;stroke-linejoin:round"></path><path d="M111.2,223s4.73-3.55,5.12-2-.78,7.28-2.56,6.89S111.2,223,111.2,223Z" style="fill:#263238;stroke:#263238;stroke-linecap:round;stroke-linejoin:round"></path><path d="M160.17,286.19s1.55,2.33,8.54,3.62,8.53,5.69,10.08,4.66-1.72-4.26-3.64-7.09a6.44,6.44,0,0,0-5.15-2.74Z" style="fill:#b8b8b8;stroke:#263238;stroke-linecap:round;stroke-linejoin:round"></path><path d="M152.13,275.41s10.26-.9,11.52-.72,17.11,4.86,18.73,5.58,6.12,3.42,6.84,5.58,2.34,9.54,1.44,9.72-2.34.36-3.06-.72-4.14-6.84-4.14-6.84L177.69,285s4.33,4,4.69,5,4,6.12,2.16,5.94-4.87-5-4.87-5l-5.94-3.42s-7.56-.36-11-.72-10.08-2.7-10.08-2.7Z" style="fill:#b8b8b8;stroke:#263238;stroke-linecap:round;stroke-linejoin:round"></path><path d="M179,281.17s8.11,3.06,8.65,4,3.24,8.82,3.24,8.82" style="fill:none;stroke:#263238;stroke-linecap:round;stroke-linejoin:round"></path><path d="M135.39,278l16.74-2.63a27.12,27.12,0,0,1,1.57,8.14v3.94l-12,5.32Z" style="fill:#FFC100;stroke:#263238;stroke-linecap:round;stroke-linejoin:round"></path><path d="M85.21,224s-9.65-.2-13.79,11.23a31.44,31.44,0,0,0,2.37,26.19c2.75,4.73,10.59,41.61,12.37,44.56s54.35-9.85,55.92-11,1.19-6.5-1.37-12.6-10.44-5.91-10.44-5.91l-23.24.59a4.61,4.61,0,0,0,.59-2.56,13.05,13.05,0,0,1-.2-2s7.33.93,3.39-17.78-7.48-25.4-12.6-28.35S88.36,222.45,85.21,224Z" style="fill:#FFC100;stroke:#263238;stroke-linecap:round;stroke-linejoin:round"></path><path d="M103.3,273s-10.66,5.94-7.51,5.6,9.09-3.33,8.56-2.63" style="fill:none;stroke:#263238;stroke-linecap:round;stroke-linejoin:round"></path><line x1="74.81" y1="259.54" x2="75.51" y2="244.86" style="fill:none;stroke:#263238;stroke-linecap:round;stroke-linejoin:round"></line><path d="M107,271.08a33.32,33.32,0,0,0,.7-14.68" style="fill:none;stroke:#263238;stroke-linecap:round;stroke-linejoin:round"></path><path d="M75.87,436.42h0a1.91,1.91,0,0,1-1.91-1.9L73.15,360h5.43l-.8,74.56A1.91,1.91,0,0,1,75.87,436.42Z" style="fill:#263238;stroke:#263238;stroke-linecap:round;stroke-linejoin:round"></path><path d="M79.56,436.42h0a1.91,1.91,0,0,1-1.91-1.9L76.85,360h5.43l-.8,74.56A1.92,1.92,0,0,1,79.56,436.42Z" style="fill:#263238;stroke:#263238;stroke-linecap:round;stroke-linejoin:round"></path><path d="M40.84,436.42h0a1.92,1.92,0,0,1-1.92-1.9L38.13,360h5.42l-.79,74.56A1.92,1.92,0,0,1,40.84,436.42Z" style="fill:#263238;stroke:#263238;stroke-linecap:round;stroke-linejoin:round"></path><path d="M116.32,436.42h0a1.92,1.92,0,0,1-1.92-1.9L113.6,360H119l-.79,74.56A1.92,1.92,0,0,1,116.32,436.42Z" style="fill:#263238;stroke:#263238;stroke-linecap:round;stroke-linejoin:round"></path><path d="M42.56,349.93h71.5a6.33,6.33,0,0,1,6.33,6.33v6a0,0,0,0,1,0,0H36.22a0,0,0,0,1,0,0v-6A6.33,6.33,0,0,1,42.56,349.93Z" style="fill:#949494;stroke:#263238;stroke-linecap:round;stroke-linejoin:round"></path><rect x="36.22" y="357.74" width="84.16" height="9.45" style="fill:#263238;stroke:#263238;stroke-linecap:round;stroke-linejoin:round"></rect><path d="M86.39,349.93H114a6.33,6.33,0,0,1,6.33,6.33v6a0,0,0,0,1,0,0H80.06a0,0,0,0,1,0,0v-6A6.33,6.33,0,0,1,86.39,349.93Z" style="fill:#b8b8b8;stroke:#263238;stroke-linecap:round;stroke-linejoin:round"></path><rect x="80.06" y="357.74" width="40.28" height="9.45" style="fill:#263238;stroke:#263238;stroke-linecap:round;stroke-linejoin:round"></rect></g><g id="freepik--Floor--inject-2"><line x1="384.3" y1="436.15" x2="490.34" y2="436.15" style="fill:none;stroke:#263238;stroke-linecap:round;stroke-linejoin:round"></line><line x1="7.52" y1="436.15" x2="375.83" y2="436.15" style="fill:none;stroke:#263238;stroke-linecap:round;stroke-linejoin:round"></line></g></svg>
